<?xml version="1.0" encoding="UTF-8" standalone="no"?>
<svg width="1024px" height="120px" viewBox="0 0 1024 120" version="1.1" xmlns="http://www.w3.org/2000/svg" xmlns:xlink="http://www.w3.org/1999/xlink">
    <!-- Generator: Sketch 3.8.3 (29802) - http://www.bohemiancoding.com/sketch -->
    <title>Page 1</title>
    <desc>Created with Sketch.</desc>
    <defs></defs>
    <g id="Page-1" stroke="none" stroke-width="1" fill="none" fill-rule="evenodd">
        <g>
            <path d="M269.8656,108.101446 C276.973292,97.6817538 284.112369,87.2140615 291.641908,76.1749846 L291.641908,115.267292 C303.0936,115.814677 324.877292,115.631908 328.441292,115.002369 L328.441292,2.91683077 L298.190215,2.91683077 C288.635446,17.0805231 279.040062,31.3042154 269.392062,45.6072923 C259.527138,31.1112923 249.916062,16.9882154 240.416677,3.02852308 L210.547754,3.02852308 L210.547754,115.254369 L246.439754,115.254369 C246.439754,102.1476 246.438831,89.2383692 246.449908,76.3300615 C246.449908,76.2100615 246.588369,76.0706769 246.695446,75.9783692 C246.773908,75.9109846 246.906831,75.9063692 246.734215,75.9580615 C254.147446,86.6491385 261.506215,97.2672923 268.889908,107.867908 C269.010831,108.042369 269.4336,108.006369 269.8656,108.101446" id="Fill-1" fill="#FFFFFF"></path>
            <path d="M186.391292,74.9025231 C185.902062,75.4886769 185.2356,76.9757538 184.115908,77.5046769 C180.394985,79.2622154 176.617754,81.4988308 172.663292,82.0111385 C167.825446,82.6379077 162.712523,82.9212923 157.841446,81.3012923 C153.929446,80.0006769 150.262985,77.9625231 147.604523,75.0022154 C144.875908,71.9643692 142.6836,68.4816 141.732831,64.0683692 C140.737754,59.4483692 141.1236,55.1034462 142.584831,51.0428308 C144.485446,45.7628308 148.037446,41.4511385 153.305446,38.8056 C156.612831,37.1449846 159.913754,36.1249846 163.710369,35.9643692 C170.5476,35.6754462 176.7636,37.1856 182.5716,40.6812923 C184.078985,41.5877538 185.599292,42.4711385 187.187908,43.4089846 C192.8556,33.4000615 198.3636,23.6717538 203.8476,13.9859077 L203.8476,11.3320615 C201.667292,10.0028308 199.7076,8.37913846 197.456215,7.52436923 C192.667292,5.70683077 188.046369,3.48129231 182.928831,2.42621538 C178.506369,1.51421538 174.122677,0.151753846 169.621754,0.156369231 C164.214369,0.160984615 158.796831,-0.487938462 153.350677,0.830215385 C151.004215,1.39790769 148.409446,1.62129231 146.054677,2.25636923 C139.822985,3.93729231 134.132215,7.00744615 128.674985,10.3794462 C123.9996,13.2686769 120.155908,17.3062154 116.723908,21.5034462 C113.107292,25.9268308 110.705446,31.2437538 108.181754,36.3889846 C107.249446,38.2905231 106.652215,40.3942154 106.173138,42.4692923 C105.680215,44.6062154 105.516831,46.8197538 105.209446,49.0000615 C104.901138,51.1794462 104.446062,53.3514462 104.323292,55.5419077 C104.169138,58.3028308 104.150677,61.0868308 104.322369,63.8449846 C104.506062,66.7886769 104.638062,69.8052923 105.397754,72.6271385 C106.990985,78.5431385 109.056831,84.3197538 112.169446,89.6588308 C112.8876,90.8892923 113.373138,92.2637538 114.157754,93.4434462 C116.690677,97.2502154 119.965754,100.424677 123.310985,103.478215 C126.002677,105.934523 129.042369,107.9856 132.144831,109.943446 C136.790677,112.876985 142.030062,114.351138 147.106985,116.164985 C150.358985,117.326215 153.936831,117.469292 157.357754,118.106215 C160.330985,118.660062 163.490677,118.276985 166.565446,118.205908 C169.687292,118.132985 172.756523,118.158831 175.914369,117.478523 C178.739908,116.869292 181.565446,116.164985 184.375292,115.631446 C190.446369,114.479446 195.7356,111.791446 201.034985,108.966831 C202.784215,108.0336 204.382062,106.817908 206.278985,105.581908 C204.753138,102.310523 203.700831,99.1323692 201.922985,96.4314462 C197.964831,90.4185231 194.741446,83.9985231 191.094369,77.8176 C190.137138,76.1957538 189.382062,74.6514462 186.391292,74.9025231" id="Fill-3" fill="#FFFFFF"></path>
            <path d="M376.689046,72.8276308 L406.037354,72.8276308 L406.037354,44.3202462 L376.716738,44.3202462 L376.716738,32.2648615 L405.981969,32.2648615 L405.981969,3.00516923 C391.864431,2.36363077 343.463815,2.61286154 339.8472,3.30516923 L339.8472,115.344554 L407.774585,115.344554 L407.774585,85.8060923 L376.689046,85.8060923 L376.689046,72.8276308 Z" id="Fill-5" fill="#FFFFFF"></path>
            <path d="M269.8656,108.101446 C269.4336,108.006369 269.010831,108.042369 268.889908,107.867908 C261.506215,97.2672923 254.147446,86.6491385 246.734215,75.9580615 C246.906831,75.9063692 246.773908,75.9109846 246.695446,75.9783692 C246.588369,76.0706769 246.449908,76.2100615 246.449908,76.3300615 C246.438831,89.2383692 246.439754,102.1476 246.439754,115.254369 L210.547754,115.254369 L210.547754,3.02852308 L240.416677,3.02852308 C249.916062,16.9882154 259.527138,31.1112923 269.392062,45.6072923 C279.040062,31.3042154 288.635446,17.0805231 298.190215,2.91683077 L328.441292,2.91683077 L328.441292,115.002369 C324.877292,115.631908 303.0936,115.814677 291.641908,115.267292 L291.641908,76.1749846 C284.112369,87.2140615 276.973292,97.6817538 269.8656,108.101446" id="Fill-7" fill="#FFFFFF"></path>
            <path d="M186.391292,74.9025231 C189.382062,74.6514462 190.137138,76.1957538 191.094369,77.8176 C194.741446,83.9985231 197.964831,90.4185231 201.922985,96.4314462 C203.700831,99.1323692 204.753138,102.310523 206.278985,105.581908 C204.382062,106.817908 202.784215,108.0336 201.034985,108.966831 C195.7356,111.791446 190.446369,114.479446 184.375292,115.631446 C181.565446,116.164985 178.739908,116.869292 175.914369,117.478523 C172.756523,118.158831 169.687292,118.132985 166.565446,118.205908 C163.490677,118.276985 160.330985,118.660062 157.357754,118.106215 C153.936831,117.469292 150.358985,117.326215 147.106985,116.164985 C142.030062,114.351138 136.790677,112.876985 132.144831,109.943446 C129.042369,107.9856 126.002677,105.934523 123.310985,103.478215 C119.965754,100.424677 116.690677,97.2502154 114.157754,93.4434462 C113.373138,92.2637538 112.8876,90.8892923 112.169446,89.6588308 C109.056831,84.3197538 106.990985,78.5431385 105.397754,72.6271385 C104.638062,69.8052923 104.506062,66.7886769 104.322369,63.8449846 C104.150677,61.0868308 104.169138,58.3028308 104.323292,55.5419077 C104.446062,53.3514462 104.901138,51.1794462 105.209446,49.0000615 C105.516831,46.8197538 105.680215,44.6062154 106.173138,42.4692923 C106.652215,40.3942154 107.249446,38.2905231 108.181754,36.3889846 C110.705446,31.2437538 113.107292,25.9268308 116.723908,21.5034462 C120.155908,17.3062154 123.9996,13.2686769 128.674985,10.3794462 C134.132215,7.00744615 139.822985,3.93729231 146.054677,2.25636923 C148.409446,1.62129231 151.004215,1.39790769 153.350677,0.830215385 C158.796831,-0.487938462 164.214369,0.160984615 169.621754,0.156369231 C174.122677,0.151753846 178.506369,1.51421538 182.928831,2.42621538 C188.046369,3.48129231 192.667292,5.70683077 197.456215,7.52436923 C199.7076,8.37913846 201.667292,10.0028308 203.8476,11.3320615 L203.8476,13.9859077 C198.3636,23.6717538 192.8556,33.4000615 187.187908,43.4089846 C185.599292,42.4711385 184.078985,41.5877538 182.5716,40.6812923 C176.7636,37.1856 170.5476,35.6754462 163.710369,35.9643692 C159.913754,36.1249846 156.612831,37.1449846 153.305446,38.8056 C148.037446,41.4511385 144.485446,45.7628308 142.584831,51.0428308 C141.1236,55.1034462 140.737754,59.4483692 141.732831,64.0683692 C142.6836,68.4816 144.875908,71.9643692 147.604523,75.0022154 C150.262985,77.9625231 153.929446,80.0006769 157.841446,81.3012923 C162.712523,82.9212923 167.825446,82.6379077 172.663292,82.0111385 C176.617754,81.4988308 180.394985,79.2622154 184.115908,77.5046769 C185.2356,76.9757538 185.902062,75.4886769 186.391292,74.9025231" id="Fill-9" fill="#FFFFFF"></path>
            <path d="M376.689046,72.8276308 L376.689046,85.8060923 L407.774585,85.8060923 L407.774585,115.344554 L339.8472,115.344554 L339.8472,3.30516923 C343.463815,2.61286154 391.864431,2.36363077 405.981969,3.00516923 L405.981969,32.2648615 L376.716738,32.2648615 L376.716738,44.3202462 L406.037354,44.3202462 L406.037354,72.8276308 L376.689046,72.8276308 Z" id="Fill-11" fill="#FFFFFF"></path>
            <path d="M441.281631,99.4957846 L441.281631,51.3204 L427.786246,51.3204 L427.786246,38.1388615 L441.281631,38.1388615 L441.281631,32.1757846 C441.281631,21.9240923 443.635477,14.5496308 448.343169,10.0496308 C452.737015,5.76101538 459.170862,3.61578462 467.645631,3.61578462 C476.118554,3.61578462 483.650862,5.44716923 490.242554,9.10809231 L485.689938,21.6619385 C480.669323,19.0487077 475.961631,17.7388615 471.568708,17.7388615 C467.174862,17.7388615 464.138862,18.8133231 462.465323,20.9557846 C460.792708,23.1010154 459.955477,26.3696308 459.955477,30.7634769 L459.955477,38.1388615 L483.181015,38.1388615 L483.181015,51.3204 L459.955477,51.3204 L459.955477,103.889631 L473.137015,104.517323 L473.137015,117.071169 L431.5524,117.071169 L431.5524,105.145015 L436.730862,104.674246 C438.300092,104.465631 439.450246,104.021631 440.183169,103.3404 C440.914246,102.661938 441.281631,101.378862 441.281631,99.4957846" id="Fill-13" fill="#F4EC45"></path>
            <path d="M498.086954,24.5652 C495.890031,22.4227385 494.791569,19.6756615 494.791569,16.3267385 C494.791569,12.9796615 495.890031,10.1818154 498.086954,7.93043077 C500.283877,5.68273846 503.160185,4.55750769 506.717723,4.55750769 C510.273415,4.55750769 513.176492,5.68273846 515.427877,7.93043077 C517.675569,10.1818154 518.801723,12.9796615 518.801723,16.3267385 C518.801723,19.6756615 517.675569,22.4227385 515.427877,24.5652 C513.176492,26.7104308 510.273415,27.7812 506.717723,27.7812 C503.160185,27.7812 500.283877,26.7104308 498.086954,24.5652 L498.086954,24.5652 Z M517.859262,38.1390462 L517.859262,104.045815 L526.8048,104.517508 L526.8048,117.071354 L489.456185,117.071354 L489.456185,105.1452 L494.634646,104.674431 C497.667877,104.360585 499.185415,102.687969 499.185415,99.6528923 L499.185415,56.0282769 C499.185415,54.2504308 498.896492,53.0458154 498.322338,52.4190462 C497.746338,51.7913538 496.725415,51.4775077 495.262338,51.4775077 L489.770031,51.1627385 L489.770031,38.1390462 L517.859262,38.1390462 Z" id="Fill-15" fill="#F4EC45"></path>
            <path d="M534.962677,50.6926154 L534.962677,38.1387692 L561.482677,38.1387692 L561.482677,48.3387692 C564.202062,44.4701538 567.811292,41.4092308 572.310369,39.1587692 C576.8076,36.9101538 581.672215,35.7858462 586.905138,35.7858462 C594.853754,35.7858462 601.000523,38.0603077 605.342677,42.6110769 C609.682062,47.1618462 611.854985,53.988 611.854985,63.0895385 L611.854985,104.046462 L620.7996,104.518154 L620.7996,117.071077 L583.451908,117.071077 L583.451908,105.144923 L588.631292,104.674154 C590.1996,104.465538 591.349754,104.021538 592.082677,103.340308 C592.813754,102.661846 593.181138,101.378769 593.181138,99.4956923 L593.181138,67.1704615 C593.181138,61.4169231 592.290369,57.1532308 590.513446,54.3803077 C588.733754,51.6092308 585.359908,50.2218462 580.391908,50.2218462 C575.422062,50.2218462 571.472215,51.7910769 568.544215,54.9295385 C565.614369,58.068 564.150369,61.7833846 564.150369,66.0710769 L564.150369,104.046462 L573.095908,104.518154 L573.095908,117.071077 L535.748215,117.071077 L535.748215,105.144923 L540.925754,104.674154 C542.494985,104.465538 543.645138,104.021538 544.378062,103.340308 C545.109138,102.661846 545.477446,101.378769 545.477446,99.4956923 L545.477446,56.028 C545.477446,52.8895385 544.1676,51.2686154 541.554369,51.1633846 L534.962677,50.6926154 Z" id="Fill-17" fill="#F4EC45"></path>
            <path d="M682.312431,92.1201231 L682.312431,51.4779692 C679.382585,50.1192 675.354277,49.4379692 670.229354,49.4379692 C663.219508,49.4379692 658.146277,52.2616615 655.007815,57.9108923 C651.870277,63.5610462 650.300123,71.0407385 650.300123,80.3508923 C650.300123,97.2985846 655.738892,105.772431 666.620123,105.772431 C671.222585,105.772431 674.988738,104.386892 677.918585,101.613969 C680.846585,98.8438154 682.312431,95.6776615 682.312431,92.1201231 M700.516431,41.2770462 L700.516431,99.6524308 C700.516431,101.327815 700.802585,102.477969 701.378585,103.104738 C701.951815,103.732431 702.972738,104.100738 704.439508,104.2032 L709.460123,104.517969 L709.460123,117.070892 L684.509354,117.070892 L684.509354,107.969354 L684.038585,107.812431 C678.806585,115.344738 671.641662,119.110892 662.540123,119.110892 C651.870277,119.110892 643.969662,115.713046 638.844738,108.910892 C633.717969,102.111508 631.155508,92.8013538 631.155508,80.9795077 C631.155508,66.7530462 634.607815,55.6632 641.512431,47.7118154 C648.417046,39.7613538 658.773969,35.7856615 672.5832,35.7856615 C681.474277,35.7856615 690.7872,37.6161231 700.516431,41.2770462" id="Fill-19" fill="#F4EC45"></path>
            <path d="M718.088862,50.6926154 L718.088862,38.1387692 L744.608862,38.1387692 L744.608862,48.3387692 C747.328246,44.4701538 750.937477,41.4092308 755.436554,39.1587692 C759.933785,36.9101538 764.7984,35.7858462 770.031323,35.7858462 C777.979938,35.7858462 784.126708,38.0603077 788.468862,42.6110769 C792.808246,47.1618462 794.981169,53.988 794.981169,63.0895385 L794.981169,104.046462 L803.925785,104.518154 L803.925785,117.071077 L766.578092,117.071077 L766.578092,105.144923 L771.757477,104.674154 C773.325785,104.465538 774.475938,104.021538 775.208862,103.340308 C775.939938,102.661846 776.307323,101.378769 776.307323,99.4956923 L776.307323,67.1704615 C776.307323,61.4169231 775.416554,57.1532308 773.639631,54.3803077 C771.859938,51.6092308 768.486092,50.2218462 763.518092,50.2218462 C758.548246,50.2218462 754.5984,51.7910769 751.6704,54.9295385 C748.740554,58.068 747.276554,61.7833846 747.276554,66.0710769 L747.276554,104.046462 L756.222092,104.518154 L756.222092,117.071077 L718.8744,117.071077 L718.8744,105.144923 L724.051938,104.674154 C725.621169,104.465538 726.771323,104.021538 727.504246,103.340308 C728.235323,102.661846 728.603631,101.378769 728.603631,99.4956923 L728.603631,56.028 C728.603631,52.8895385 727.293785,51.2686154 724.680554,51.1633846 L718.088862,50.6926154 Z" id="Fill-21" fill="#F4EC45"></path>
            <g id="Group-25" transform="translate(812.307692, 35.268000)" fill="#F4EC45">
                <path d="M24.8842154,62.1877846 C28.2312923,67.1059385 33.0682154,69.5631692 39.3996,69.5631692 C45.7282154,69.5631692 51.9783692,67.3154769 58.1519077,62.8154769 L64.8996,74.8985538 C57.4706769,80.9668615 48.1605231,84.0000923 36.9672923,84.0000923 C25.7722154,84.0000923 16.9596,80.4693231 10.5257538,73.4077846 C4.09190769,66.3462462 0.874984615,55.9108615 0.874984615,42.1016308 C0.874984615,28.2924 4.56267692,17.9105538 11.9380615,10.9524 C19.3134462,3.99609231 27.6303692,0.517015385 36.8888308,0.517015385 C46.1472923,0.517015385 54.7503692,2.66316923 62.7026769,6.95086154 L62.7026769,27.3508615 L48.2657538,28.4493231 L48.2657538,20.9170154 C48.2657538,18.0924 47.2457538,16.3413231 45.2057538,15.6600923 C43.1657538,14.9807077 41.0472923,14.6400923 38.8503692,14.6400923 C26.1912923,14.6400923 19.8626769,23.5847077 19.8626769,41.4739385 C19.8626769,50.3668615 21.5343692,57.2714769 24.8842154,62.1877846" id="Fill-23"></path>
            </g>
            <path d="M919.339477,71.6421231 C923.157323,70.9627385 926.688092,69.4452 929.931785,67.0913538 C933.172708,64.7375077 934.7964,61.9396615 934.7964,58.6959692 C934.7964,52.3156615 931.657938,49.1227385 925.381015,49.1227385 C919.5204,49.1227385 915.024092,51.4525846 911.885631,56.1067385 C908.747169,60.7627385 907.021015,66.3335077 906.707169,72.8181231 C911.309631,72.7156615 915.518862,72.3233538 919.339477,71.6421231 M926.479477,35.7852 C934.325631,35.7852 940.549015,37.6950462 945.153323,41.5119692 C949.755785,45.3325846 952.057938,50.6928923 952.057938,57.5975077 C952.057938,62.2018154 951.061938,66.2550462 949.0764,69.7590462 C947.088092,73.2648923 944.628092,76.0110462 941.701015,77.9975077 C938.771169,79.9858154 935.212708,81.6067385 931.030246,82.8621231 C924.0204,84.9556615 916.122554,86.0005846 907.334862,86.0005846 C907.648708,91.5464308 909.374862,96.0187385 912.513323,99.4175077 C915.651785,102.818123 920.462862,104.517508 926.950246,104.517508 C933.435785,104.517508 939.921323,102.2172 946.408708,97.6128923 L952.371785,110.323662 C950.278246,112.206738 946.746554,114.143354 941.7804,116.129815 C936.809631,118.116277 931.132708,119.111354 924.753323,119.111354 C911.989015,119.111354 902.628092,115.580585 896.665015,108.519046 C890.701015,101.457508 887.719477,91.7550462 887.719477,79.4098154 C887.719477,67.0664308 891.118246,56.7095077 897.919477,48.3390462 C904.718862,39.9704308 914.239477,35.7852 926.479477,35.7852" id="Fill-26" fill="#F4EC45"></path>
            <path d="M1004.15622,50.0652 C1001.64452,49.1227385 998.609446,48.6528923 995.054677,48.6528923 C991.496215,48.6528923 988.644831,49.4642769 986.502369,51.0842769 C984.357138,52.7079692 983.285446,54.6944308 983.285446,57.0473538 C983.285446,59.4021231 983.676831,61.2335077 984.462369,62.5405846 C985.246985,63.8504308 986.4756,64.9719692 988.149138,65.9144308 C990.763292,67.2759692 993.902677,68.4519692 997.564523,69.4452 C1001.22545,70.4402769 1003.94483,71.2248923 1005.72452,71.7990462 C1007.50237,72.3750462 1009.72606,73.3442769 1012.39468,74.7012 C1015.06145,76.0627385 1017.07468,77.5267385 1018.43622,79.0959692 C1022.09714,82.9682769 1023.92852,87.9372 1023.92852,94.0036615 C1023.92852,101.849815 1021.07622,107.996585 1015.37529,112.442123 C1009.67345,116.890431 1002.43006,119.111354 993.641446,119.111354 C980.877138,119.111354 971.253138,117.487662 964.768523,114.246738 L964.768523,92.4335077 L978.8916,91.3359692 L978.8916,98.8682769 C978.8916,103.472585 983.285446,105.772892 992.072215,105.772892 C1000.86083,105.772892 1005.25375,102.583662 1005.25375,96.1996615 C1005.25375,93.9002769 1004.49406,92.0172 1002.97929,90.5504308 C1001.46083,89.0873538 999.970985,88.0941231 998.506985,87.5698154 C997.040215,87.0473538 995.290062,86.5248923 993.250062,86.0005846 C991.210062,85.4781231 989.220831,84.9556615 987.286985,84.4304308 C985.349446,83.9088923 983.257754,83.2027385 981.010062,82.3128923 C978.758677,81.4258154 976.274677,80.1427385 973.556215,78.4682769 C968.219908,75.0159692 965.553138,69.2375077 965.553138,61.1273538 C965.553138,53.0218154 968.428523,46.7698154 974.182985,42.3759692 C979.9356,37.9821231 987.180831,35.7852 995.916831,35.7852 C1004.65098,35.7852 1013.30852,37.8787385 1021.88852,42.0621231 L1021.88852,60.8919692 L1007.76452,61.9913538 L1007.76452,55.4005846 C1007.76452,52.7864308 1006.56083,51.0067385 1004.15622,50.0652" id="Fill-28" fill="#F4EC45"></path>
            <path d="M48.7857231,80.3048308 C50.9226462,73.9208308 53.4389538,67.9005231 56.0244923,60.9589846 C59.3595692,67.5848308 60.9768,73.9743692 64.0608,80.3048308 L48.7857231,80.3048308 Z M69.8881846,2.95375385 L42.7183385,2.95375385 C40.8592615,7.40206154 39.4764923,11.9186769 37.6681846,16.2183692 C33.9158769,25.1380615 30.8300308,34.2931385 27.3371077,43.3014462 C25.6949538,47.5374462 23.6226462,51.6229846 22.2149538,55.9300615 C20.9309538,59.8632923 19.3331077,63.6599077 17.9494154,67.5423692 C16.2777231,72.2297538 14.3503385,76.8192923 12.8134154,81.5666769 C11.6383385,85.1989846 10.0783385,88.7279077 8.7408,92.3260615 C6.61310769,98.0482154 4.18541538,103.658677 1.95803077,109.345754 C1.2048,111.266677 0.673107692,113.275292 0.000184615385,115.368831 L35.5986462,115.368831 C36.8475692,111.943292 38.0595692,108.617446 39.2032615,105.481754 L73.1521846,105.481754 C74.4232615,108.8436 75.6786462,112.162062 76.8675692,115.305138 L112.4928,115.305138 C98.2423385,77.7276 84.0500308,40.3005231 69.8881846,2.95375385 L69.8881846,2.95375385 Z" id="Fill-30" fill="#FFFFFF"></path>
        </g>
    </g>
</svg>