<?xml version="1.0" encoding="UTF-8" standalone="no"?>
<svg width="303px" height="178px" viewBox="0 0 303 178" version="1.1" xmlns="http://www.w3.org/2000/svg" xmlns:xlink="http://www.w3.org/1999/xlink" xmlns:sketch="http://www.bohemiancoding.com/sketch/ns">
    <!-- Generator: Sketch 3.1.1 (8761) - http://www.bohemiancoding.com/sketch -->
    <title>logo + for business 2</title>
    <desc>Created with Sketch.</desc>
    <defs></defs>
    <g id="Page-1" stroke="none" stroke-width="1" fill="none" fill-rule="evenodd" sketch:type="MSPage">
        <g id="Desktop-HD" sketch:type="MSArtboardGroup" transform="translate(-570.000000, -424.000000)" fill="#13A0D5">
            <g id="logo-+-for-business-2" sketch:type="MSLayerGroup" transform="translate(570.000000, 424.000000)">
                <g id="logo" sketch:type="MSShapeGroup">
                    <path d="M115.381964,87.857268 L174.007068,87.857268 C183.929398,87.857268 191.974027,79.8122338 191.974027,69.8899034 L191.974027,18.3219751 C191.974027,8.39964465 183.929398,0.35501543 174.007068,0.35501543 L115.381964,0.35501543 C105.459633,0.35501543 97.4129791,8.39964465 97.4129791,18.3219751 L97.4129791,69.8899034 C97.4129791,79.8122338 105.459633,87.857268 115.381964,87.857268 L115.381964,87.857268 Z M108.910456,18.3219751 C108.910456,14.7488344 111.808823,11.8524925 115.381964,11.8524925 L174.007068,11.8524925 C177.580208,11.8524925 180.47493,14.7488344 180.47493,18.3219751 L180.478575,23.9805953 L176.51742,23.9805953 C175.860062,21.1000494 173.286526,18.9513857 170.209948,18.9513857 C167.129724,18.9513857 164.552948,21.1000494 163.902476,23.9805953 L161.42007,23.9805953 C160.770003,21.1000494 158.189987,18.9513857 155.113003,18.9513857 C152.03683,18.9513857 149.461673,21.1000494 148.807961,23.9805953 L146.330821,23.9805953 C145.673059,21.1000494 143.099928,18.9513857 140.024969,18.9513857 C136.943125,18.9513857 134.367969,21.1000494 133.714662,23.9805953 L108.910456,23.9805953 L108.910456,18.3219751 L108.910456,18.3219751 Z M108.910456,26.857901 L133.714662,26.857901 C134.367969,29.739257 136.943125,31.8875156 140.024969,31.8875156 C143.099928,31.8875156 145.673059,29.739257 146.330821,26.857901 L148.807961,26.857901 C149.463294,29.739257 152.03683,31.8875156 155.113003,31.8875156 C158.189987,31.8875156 160.770003,29.739257 161.42007,26.857901 L163.902476,26.857901 C164.552948,29.739257 167.129724,31.8875156 170.209948,31.8875156 C173.286526,31.8875156 175.860062,29.739257 176.51742,26.857901 L180.478575,26.857901 L180.478575,42.6664763 L176.51742,42.6664763 C175.860062,39.7871455 173.286526,37.6372667 170.209948,37.6372667 C167.129724,37.6372667 164.552948,39.7871455 163.902476,42.6664763 L161.42007,42.6664763 C160.770003,39.7871455 158.189987,37.6372667 155.113003,37.6372667 C152.03683,37.6372667 149.463294,39.7871455 148.807961,42.6664763 L126.921159,42.6664763 C126.271092,39.7871455 123.694315,37.6372667 120.614092,37.6372667 C117.539133,37.6372667 114.963977,39.7871455 114.310265,42.6664763 L108.910456,42.6664763 L108.910456,26.857901 L108.910456,26.857901 Z M108.910456,45.543782 L114.310265,45.543782 C114.963977,48.424733 117.539133,50.5766369 120.614092,50.5766369 C123.694315,50.5766369 126.271092,48.424733 126.921159,45.543782 L148.807961,45.543782 C149.463294,48.424733 152.03683,50.5766369 155.113003,50.5766369 C158.189987,50.5766369 160.770003,48.424733 161.42007,45.543782 L163.902476,45.543782 C164.552948,48.424733 167.129724,50.5766369 170.209948,50.5766369 C173.286526,50.5766369 175.860062,48.424733 176.51742,45.543782 L180.478575,45.543782 L180.478575,61.3539775 L176.51742,61.3539775 C175.860062,58.4746466 173.286526,56.3243628 170.209948,56.3243628 C167.129724,56.3243628 164.552948,58.4746466 163.902476,61.3539775 L142.018103,61.3539775 C141.364391,58.4746466 138.78721,56.3243628 135.711036,56.3243628 C132.634052,56.3243628 130.054036,58.4746466 129.403564,61.3539775 L126.921159,61.3539775 C126.271092,58.4746466 123.694315,56.3243628 120.614092,56.3243628 C117.539133,56.3243628 114.963977,58.4746466 114.310265,61.3539775 L108.910456,61.3539775 L108.910456,45.543782 L108.910456,45.543782 Z M108.910456,64.2312832 L114.310265,64.2312832 C114.963977,67.1138542 117.539133,69.2604928 120.614092,69.2604928 C123.694315,69.2604928 126.271092,67.1138542 126.921159,64.2312832 L129.403564,64.2312832 C130.054036,67.1138542 132.634052,69.2604928 135.711036,69.2604928 C138.78721,69.2604928 141.364391,67.1138542 142.018103,64.2312832 L163.902476,64.2312832 C164.552948,67.1138542 167.129724,69.2604928 170.209948,69.2604928 C173.286526,69.2604928 175.860062,67.1138542 176.51742,64.2312832 L180.478575,64.2312832 L180.47493,69.8899034 C180.47493,73.463044 177.580208,76.3577658 174.007068,76.3577658 L115.381964,76.3577658 C111.808823,76.3577658 108.910456,73.463044 108.910456,69.8899034 L108.910456,64.2312832 L108.910456,64.2312832 Z" id="Fill-1"></path>
                    <path d="M295.172663,100.025873 C291.144678,100.025873 287.879357,103.291194 287.879357,107.319179 C287.879357,111.353645 291.144678,114.618965 295.172663,114.618965 C299.200243,114.618965 302.465969,111.353645 302.465969,107.319179 C302.465969,103.291194 299.200243,100.025873 295.172663,100.025873 L295.172663,100.025873 Z M295.172663,113.549291 C291.728726,113.549291 288.942551,110.765952 288.942551,107.319179 C288.942551,103.885773 291.728726,101.095547 295.172663,101.095547 C298.612955,101.095547 301.40318,103.885773 301.40318,107.319179 C301.40318,110.765952 298.612955,113.549291 295.172663,113.549291 L295.172663,113.549291 Z" id="Fill-2"></path>
                    <path d="M286.704781,117.178325 L272.894605,117.178325 L256.651032,135.309726 L256.651032,100.20044 L245.62379,100.20044 L245.62379,126.730057 C243.623771,123.576118 240.942498,121.058881 237.582401,119.150398 C233.946481,117.080309 230.05499,116.038582 225.911978,116.038582 C220.174782,116.038582 215.094945,118.038601 210.682185,122.017173 C208.465882,124.030963 206.735205,126.268732 205.494205,128.722786 C205.305463,128.345706 205.098899,127.967817 204.885856,127.589927 C202.836828,124.038253 199.983824,121.220081 196.319553,119.150398 C192.684038,117.080309 188.789307,116.038582 184.645889,116.038582 C178.908694,116.038582 173.835742,118.038601 169.416501,122.017173 C167.304695,123.932946 165.643683,126.052043 164.413213,128.365958 C163.455327,126.226609 162.161268,124.289774 160.553314,122.541682 C156.53991,118.206282 151.665826,116.038582 145.926605,116.038582 C143.28543,116.038582 140.810315,116.542029 138.493971,117.534748 C136.179246,118.534758 134.025722,120.024444 132.032994,122.017173 L132.032994,100.20044 L121.084327,100.20044 L121.084327,117.178325 L117.194861,117.178325 L104.588827,144.763846 L93.1597996,117.178325 L75.3378393,117.178325 L75.3378393,122.017173 C73.3694123,120.024444 71.2296592,118.534758 68.9116946,117.534748 C66.5969702,116.542029 64.1182102,116.038582 61.4802749,116.038582 C55.7446998,116.038582 50.867375,118.206282 46.855591,122.541682 C45.4343543,124.079971 44.2666639,125.765285 43.3504948,127.604508 C42.4347307,125.765285 41.2666353,124.079971 39.8474237,122.541682 C35.8319945,118.206282 30.958315,116.038582 25.2207147,116.038582 C22.5791342,116.038582 20.1040194,116.542029 17.789295,117.534748 C15.4733555,118.534758 13.3178064,120.024444 11.3250778,122.017173 L11.3250778,117.178325 L0.37803125,117.178325 L0.37803125,177.201985 L11.3250778,177.201985 L11.3250778,156.475987 C13.4769817,158.524609 15.6446816,160.00741 17.8297976,160.923174 C20.0116735,161.811396 22.3660904,162.252065 24.8975038,162.252065 C30.5771854,162.252065 35.4946078,160.063303 39.6445056,155.67201 C41.153228,154.056766 42.3893678,152.315558 43.3504948,150.420846 C44.3120269,152.315558 45.5477616,154.056766 47.056484,155.67201 C51.2067869,160.063303 56.1189439,162.252065 61.8018657,162.252065 C64.3332791,162.252065 66.6775704,161.811396 68.8347396,160.923174 C71.0145903,160.00741 73.1806701,158.524609 75.3378393,156.475987 L75.3378393,161.126092 L86.3229583,161.126092 L86.3229583,127.960931 L98.6122615,157.853481 L89.5639775,177.201985 L100.952908,177.201985 L121.084327,133.344944 L121.084327,161.126092 L132.032994,161.126092 L132.032994,156.475987 C134.184492,158.524609 136.352597,160.00741 138.535688,160.923174 C140.719184,161.811396 143.073601,162.252065 145.606635,162.252065 C151.288341,162.252065 156.196853,160.063303 160.347156,155.67201 C162.011003,153.89597 163.343134,151.95873 164.336259,149.847329 C165.399452,151.889066 166.790717,153.797954 168.531924,155.553337 C172.999768,160.021586 178.384185,162.252065 184.684367,162.252065 C188.967518,162.252065 192.886551,161.244765 196.442276,159.224089 C199.99476,157.182352 202.795111,154.35041 204.843733,150.742437 C205.064067,150.357662 205.273871,149.973292 205.469498,149.581632 C206.543223,151.72827 207.983091,153.720999 209.787482,155.553337 C214.262616,160.021586 219.646628,162.252065 225.95086,162.252065 C230.233607,162.252065 234.156285,161.244765 237.705124,159.224089 C240.988266,157.336262 243.627416,154.783788 245.62379,151.560185 L245.62379,161.126092 L256.651032,161.126092 L256.651032,140.882885 L275.317472,161.126092 L289.012215,161.126092 L267.800591,138.253861 L286.704781,117.178325 L286.704781,117.178325 Z M31.4022236,148.476721 C29.1122058,150.930774 26.2835033,152.154763 22.9165209,152.154763 C19.4430168,152.154763 16.5640909,150.959126 14.2740731,148.560561 C11.9856754,146.134454 10.8406665,142.97363 10.8406665,139.065128 C10.8406665,135.239656 11.9856754,132.148902 14.2740731,129.779094 C16.5640909,127.408071 19.4430168,126.219724 22.9165209,126.219724 C26.3641035,126.219724 29.2203478,127.429537 31.4844439,129.855644 C33.7444898,132.254209 34.8720826,135.337673 34.8720826,139.106846 C34.8720826,142.903561 33.716543,146.029553 31.4022236,148.476721 L31.4022236,148.476721 Z M72.4289416,148.560561 C70.1368987,150.959126 67.2579728,152.154763 63.7808234,152.154763 C60.4142461,152.154763 57.5750129,150.930774 55.2570483,148.476721 C52.9706757,146.029553 51.8240467,142.903561 51.8240467,139.106846 C51.8240467,135.337673 52.9564998,132.254209 55.2185708,129.855644 C57.4822619,127.429537 60.3214951,126.219724 63.7423459,126.219724 C67.2421768,126.226609 70.1368987,127.408071 72.4289416,129.779094 C74.7173393,132.148902 75.8619432,135.239656 75.8619432,139.065128 C75.8619432,142.97363 74.7173393,146.134454 72.4289416,148.560561 L72.4289416,148.560561 Z M152.108114,148.476721 C149.816476,150.930774 146.991419,152.154763 143.628082,152.154763 C140.149312,152.154763 137.269982,150.959126 134.981989,148.560561 C132.689946,146.134454 131.546962,142.97363 131.546962,139.065128 C131.546962,135.239656 132.689946,132.148902 134.981989,129.779094 C137.269982,127.408071 140.149312,126.219724 143.628082,126.219724 C147.069994,126.219724 149.926238,127.429537 152.190335,129.855644 C154.44876,132.254209 155.581618,135.337673 155.581618,139.106846 C155.581618,142.903561 154.420814,146.029553 152.108114,148.476721 L152.108114,148.476721 Z M193.372583,148.399766 C191.082565,150.79833 188.21579,151.993563 184.768612,151.993563 C181.32103,151.993563 178.46438,150.812101 176.202309,148.441888 C173.964945,146.07127 172.853148,142.97363 172.853148,139.148969 C172.853148,135.436094 173.982361,132.387057 176.244432,130.016439 C178.530805,127.618279 181.383809,126.422642 184.81033,126.422642 C188.310161,126.422642 191.173291,127.604508 193.41106,129.974316 C195.676371,132.323873 196.805989,135.379795 196.805989,139.148969 C196.805989,142.917737 195.65936,146.001201 193.372583,148.399766 L193.372583,148.399766 Z M234.635026,148.399766 C232.345413,150.79833 229.478233,151.993563 226.031055,151.993563 C222.583878,151.993563 219.730469,150.812101 217.465158,148.441888 C215.234679,146.07127 214.115591,142.97363 214.115591,139.148969 C214.115591,135.436094 215.24845,132.387057 217.50728,130.016439 C219.794058,127.618279 222.653542,126.422642 226.072773,126.422642 C229.568959,126.422642 232.443024,127.604508 234.677148,129.974316 C236.939219,132.323873 238.068837,135.379795 238.068837,139.148969 C238.068837,142.917737 236.925044,146.001201 234.635026,148.399766 L234.635026,148.399766 Z" id="Fill-3"></path>
                    <path d="M296.75267,107.24911 C297.875402,106.955061 298.567592,106.262871 298.567592,105.137303 C298.567592,104.298494 298.092091,103.424043 297.14433,103.095567 C296.599165,102.899939 295.987576,102.878878 295.081532,102.878878 L292.207872,102.878878 L292.207872,111.710068 L293.780993,111.710068 L293.780993,107.759848 L294.333854,107.759848 C295.473192,107.773618 296.088832,107.878115 296.322937,109.136936 L296.535981,110.493774 C296.67612,111.262514 296.812614,111.577219 296.892809,111.710068 L298.683025,111.710068 C298.291364,110.927152 298.207524,110.437475 298.015136,109.094814 C297.815864,107.899177 297.459036,107.56341 296.75267,107.24911 L296.75267,107.24911 Z M295.102593,106.501026 L293.8057,106.501026 L293.8057,104.095576 L294.80895,104.095576 C295.851082,104.095576 296.043064,104.095576 296.36101,104.23531 C296.850686,104.452404 296.990825,104.948561 296.990825,105.283923 C296.990825,106.521683 295.732409,106.501026 295.102593,106.501026 L295.102593,106.501026 Z" id="Fill-4"></path>
                </g>
            </g>
        </g>
    </g>
</svg>